PathFileType	4	(X/Y/Z)	C:/Users/opensim2020/Desktop/walking_exp_matlab/subject01_walking12_straight_02.trc	
DataRate	CameraRate	NumFrames	NumMarkers	Units	OrigDataRate	OrigDataStartFrame	OrigNumFrames	
100.00	100.00	8	44	mm	100.00	1262	122	
Frame#	Time	LFHD			RFHD			LBHD			RBHD			C7			T10			CLAV			STRN			RBAK			LSHO			LUPA			LELB			LFRM			LWRA			LWRB			LFIN			RSHO			RUPA			RELB			RFRM			RWRA			RWRB			RFIN			LASI			RASI			LPSI			RPSI			LTHI			LKNE			LTIB			LANK			LHEE			LTOE			RTHI			RKNE			RTIB			RANK			RHEE			RTOE			*39			*40			*41			*42			*43			
		X1	Y1	Z1	X2	Y2	Z2	X3	Y3	Z3	X4	Y4	Z4	X5	Y5	Z5	X6	Y6	Z6	X7	Y7	Z7	X8	Y8	Z8	X9	Y9	Z9	X10	Y10	Z10	X11	Y11	Z11	X12	Y12	Z12	X13	Y13	Z13	X14	Y14	Z14	X15	Y15	Z15	X16	Y16	Z16	X17	Y17	Z17	X18	Y18	Z18	X19	Y19	Z19	X20	Y20	Z20	X21	Y21	Z21	X22	Y22	Z22	X23	Y23	Z23	X24	Y24	Z24	X25	Y25	Z25	X26	Y26	Z26	X27	Y27	Z27	X28	Y28	Z28	X29	Y29	Z29	X30	Y30	Z30	X31	Y31	Z31	X32	Y32	Z32	X33	Y33	Z33	X34	Y34	Z34	X35	Y35	Z35	X36	Y36	Z36	X37	Y37	Z37	X38	Y38	Z38	X39	Y39	Z39	X40	Y40	Z40	X41	Y41	Z41	X42	Y42	Z42	X43	Y43	Z43	X44	Y44	Z44	

16	0.150	1525.02075	772.28412	1669.14832	1414.25500	751.64783	1678.59937	1507.66785	888.25848	1627.94543	1389.75439	870.20862	1636.97046	1460.46021	930.00635	1436.85400	1449.51550	970.04962	1143.38220	1458.86902	788.84357	1365.80579	1461.42102	747.35339	1211.19238	1379.73169	987.64801	1243.05103	1619.98462	847.71582	1393.22888	1705.07593	866.22064	1208.93689	1708.62073	868.40552	1057.71960	1737.20898	818.58337	956.36566	1725.70813	726.58105	850.67358	1746.89087	782.13910	839.90656	1761.18433	728.02533	776.40076	1307.85742	850.39362	1396.06860	1203.60486	908.01306	1198.42188	1200.41211	909.70563	1071.16357	1175.56628	872.02191	954.11322	1205.44604	784.14807	845.77032	1162.85828	824.07642	841.53223	1169.63977	779.74341	769.24927	1557.83997	793.04230	936.98633	1341.16516	793.57703	937.32141	1504.82678	978.92548	947.61310	1359.37646	975.94574	946.65503	1602.02454	808.15973	602.31598	1578.01196	809.09198	467.92215	1580.33728	869.26575	286.94931	1525.40881	917.10773	76.43299	1472.16016	964.07898	49.10621	1532.32825	772.09631	37.05777	1274.03967	774.00586	609.50653	1289.66064	742.48151	455.85992	1286.05371	887.54449	359.19852	1328.96997	1040.75391	221.12100	1383.19043	1097.49768	225.71622	1321.49182	984.34863	89.37926	1437.20923	763.61267	1711.88318	-3102.07227	1973.07581	1023.41302	-3140.74976	2012.44141	1022.19727						 
17	0.160	1525.38562	760.52490	1669.69958	1414.64575	739.98517	1678.94995	1508.31482	876.70062	1628.96362	1390.38257	858.81207	1637.66089	1461.55969	919.03333	1437.45020	1450.88074	959.15668	1144.04749	1459.83325	777.95514	1366.61548	1462.56311	736.37885	1211.97412	1381.00232	976.83557	1243.72156	1620.94055	836.64838	1394.30493	1706.73279	853.56305	1210.30042	1710.84827	853.47565	1058.82751	1739.80908	800.86188	958.88806	1728.95117	705.62329	856.11530	1749.77283	760.92017	843.61243	1764.75684	704.92993	782.07489	1308.70581	839.61865	1396.62427	1205.08398	898.45044	1198.93665	1202.20496	900.87158	1071.89526	1176.67798	865.71564	954.36279	1205.56128	780.11914	843.84937	1162.77930	820.45551	840.81085	1169.41846	777.68451	767.40509	1559.45276	782.86914	937.49908	1342.96143	782.33478	938.74237	1505.05664	968.50037	948.38458	1359.63464	964.70178	947.65448	1602.58691	803.43030	601.95898	1579.00720	806.79004	467.73822	1580.84424	868.46021	287.06772	1525.37756	916.85657	76.81013	1472.24304	964.17645	50.13552	1532.75195	772.37903	37.12440	1275.50891	756.72650	612.73151	1291.67151	722.15833	459.53979	1288.18945	863.55408	357.61118	1330.71375	1012.05408	213.91983	1384.45642	1069.72229	215.43365	1323.56091	948.48755	85.84901	1437.38879	751.81659	1712.26855	-3101.89551	1973.13538	1023.34973	-3140.68042	2012.49414	1022.06604						 
18	0.170	1525.72437	748.84894	1670.10400	1414.89343	728.46173	1679.05420	1508.92761	865.20575	1629.77319	1390.90930	847.40686	1638.17236	1462.57129	908.00317	1437.92761	1452.26172	948.33258	1144.55591	1460.74744	766.99536	1367.13037	1463.71313	725.48804	1212.54834	1382.28516	965.97076	1244.19946	1621.80920	825.58466	1395.26465	1708.35486	841.06305	1211.53247	1713.05359	838.66693	1059.87439	1742.36206	783.24902	961.36328	1732.07275	684.83350	861.72388	1752.57129	739.82843	847.44031	1768.13147	681.92767	787.84094	1309.62781	828.80865	1396.89844	1206.50793	888.93878	1199.31812	1203.96191	892.05096	1072.57129	1177.72327	859.47772	954.59125	1205.56299	776.10864	842.11011	1162.79883	817.24548	840.22156	1169.21680	775.49530	765.73431	1560.96021	772.89935	937.89923	1344.77905	771.34924	939.97308	1505.31812	958.13434	949.01343	1359.93933	953.54901	948.59161	1603.30396	798.43512	601.71436	1579.91931	804.49420	467.51563	1581.31531	867.67322	287.29611	1525.19824	916.54138	77.22622	1471.88049	963.90204	50.70820	1532.75500	772.15247	37.10014	1276.76624	739.81281	615.81555	1293.90796	702.60645	463.32526	1290.01282	839.72595	355.41901	1332.29907	982.60742	205.72993	1385.88635	1040.77490	204.10280	1325.24878	912.59802	81.87924	1437.66895	740.02124	1712.57520	-3101.87988	1973.26819	1023.39648	-3140.81421	2012.48230	1022.07471						 
19	0.180	1526.07849	737.22040	1670.37610	1415.15503	717.01221	1679.07056	1509.50415	853.73639	1630.36462	1391.43188	836.09229	1638.52014	1463.53491	896.95355	1438.23645	1453.58972	937.47998	1144.97705	1461.60144	756.00824	1367.49121	1464.87354	714.39276	1213.03931	1383.64221	955.01520	1244.52332	1622.70239	814.43585	1396.02722	1709.90869	828.65765	1212.63135	1715.22131	824.00891	1060.87085	1744.82471	765.75537	963.82690	1734.97644	664.25348	867.27283	1755.04138	718.84790	851.29358	1771.33691	659.05072	793.76221	1310.51624	818.13245	1397.14307	1208.07288	879.48926	1199.53015	1205.56238	883.25928	1073.09229	1178.63684	853.17816	954.72546	1205.51306	772.14642	840.35645	1162.76672	813.65710	839.49048	1168.80750	773.54791	764.03876	1562.31335	762.93610	938.07111	1346.43066	760.45020	941.01801	1505.67749	947.76636	949.46997	1360.18420	942.45593	949.26550	1603.83862	793.35272	601.40515	1580.73816	802.03107	467.23810	1581.69580	866.72107	287.63605	1524.95447	916.16125	77.68061	1471.62500	963.73169	51.64751	1532.85095	772.02167	37.14492	1277.95776	723.34479	618.66467	1296.18945	683.83752	466.56668	1291.51709	816.11932	352.36823	1334.24634	952.73761	196.94423	1387.19397	1010.70135	191.50069	1326.96216	875.12854	77.61742	1437.84924	728.39282	1712.66931	-3101.89331	1973.16736	1023.50018	-3140.73950	2012.47546	1021.96735						 
20	0.190	1526.30579	725.68005	1670.54016	1415.38525	705.54724	1679.00391	1510.01550	842.26807	1630.69995	1391.96179	824.79626	1638.55981	1464.43555	885.81073	1438.41028	1454.82935	926.68427	1145.26514	1462.43286	744.98785	1367.63599	1465.99658	703.49744	1213.18823	1385.01733	944.02441	1244.65161	1623.54285	803.30499	1396.63257	1711.41443	816.31567	1213.55298	1717.30566	809.41138	1061.65808	1747.16260	748.38995	966.19409	1737.78320	643.88470	872.97211	1757.51282	698.04083	855.18433	1774.32385	636.45331	799.76996	1311.38745	807.16205	1397.16577	1209.41614	870.05341	1199.62561	1206.86450	874.47290	1073.51245	1179.54138	846.89337	954.84125	1205.35632	768.09143	838.67346	1163.21460	810.16626	839.06763	1168.44360	771.50275	762.42993	1563.55884	752.91339	938.07233	1347.98865	749.35419	941.97296	1506.00781	937.53058	949.71436	1360.45422	931.34485	949.70605	1604.29846	787.75421	600.67542	1581.38220	799.25134	466.94296	1582.17310	865.57336	288.07233	1524.75671	915.96222	78.35660	1471.24438	963.56458	52.60982	1532.91284	771.91394	36.84171	1279.03430	707.46307	621.12408	1298.04419	664.72760	469.30612	1293.27698	792.25714	348.70557	1336.10364	922.05865	187.38258	1389.59778	980.26123	178.75186	1328.23889	837.27637	73.82311	1437.96912	716.89142	1712.59009	-3101.99292	1973.16016	1023.37640	-3140.66016	2012.47009	1021.95300						 
21	0.200	1526.55933	714.16370	1670.56750	1415.54651	694.30737	1678.71997	1510.54858	830.79968	1630.81409	1392.35852	813.52484	1638.45483	1465.33813	874.63361	1438.45007	1456.03027	915.82672	1145.41870	1463.27563	733.85498	1367.61792	1467.17310	692.39148	1213.17969	1386.32312	932.96240	1244.58154	1624.34900	792.03516	1397.05176	1712.87561	804.03601	1214.31543	1719.26782	794.89392	1062.25500	1749.44543	731.14178	968.50134	1740.43970	623.74640	878.56757	1760.12744	677.39185	859.21655	1777.21790	614.15253	805.82123	1312.15564	796.28235	1397.02295	1210.78015	860.71442	1199.51660	1208.36975	865.70477	1073.70691	1180.43213	840.62317	954.93439	1205.04968	763.89868	836.90900	1163.26306	806.03833	838.16583	1167.90833	769.20868	760.79504	1564.65674	742.94910	937.74310	1349.31750	738.31250	942.39093	1506.27063	927.16925	949.64075	1360.70300	920.34296	949.92505	1604.92932	782.32147	600.24060	1582.00256	796.04272	466.71869	1582.62598	864.17908	288.54364	1524.64331	915.72253	79.13080	1470.92285	963.27557	53.74042	1533.19238	772.24609	36.91206	1279.90503	691.84985	623.38776	1300.05603	647.02289	471.77917	1294.85022	768.68005	344.62787	1338.00183	890.61810	177.35080	1391.63623	948.39392	164.96947	1329.91443	798.54993	69.75418	1438.15308	705.49048	1712.44238	-3101.90967	1973.13953	1023.88654	-3140.73315	2012.56226	1022.02863						 
22	0.210	1526.80554	702.63477	1670.48645	1415.70068	682.94421	1678.35327	1511.01990	819.34344	1630.72485	1392.76172	802.24219	1638.05408	1466.19812	863.38812	1438.38464	1457.07373	904.99384	1145.40808	1464.02490	722.62097	1367.28674	1468.22876	681.54895	1212.79553	1387.65820	921.90192	1244.37500	1625.12329	780.77606	1397.27234	1714.28674	791.76642	1214.88159	1721.14966	780.49066	1062.69104	1751.58081	714.05835	970.68518	1743.01660	603.85919	884.28082	1762.47278	656.93915	863.21069	1780.01599	592.22034	812.00342	1312.78149	785.18390	1396.58923	1211.94727	851.39081	1199.32410	1209.68665	856.91290	1073.78625	1181.07190	834.09167	954.76196	1204.80261	759.69550	835.20221	1163.37708	802.21106	837.57806	1167.55762	766.91980	759.33289	1565.66357	732.97876	937.23950	1350.66248	727.28583	942.70746	1506.42322	916.87250	949.30902	1360.83374	909.26508	949.78864	1605.27795	776.88605	599.82098	1582.68542	792.80078	466.49869	1582.99353	862.50775	288.93970	1524.50342	915.45282	79.87729	1470.60559	963.01605	54.82354	1533.01123	771.99390	36.77835	1280.87854	676.66571	625.38873	1302.23181	629.79803	473.77664	1296.65979	745.17432	340.07184	1340.03552	858.49487	166.94772	1394.03650	916.14874	150.82144	1331.19006	759.01276	66.19979	1438.30652	694.47205	1711.85059	-3101.88892	1973.09778	1023.46460	-3140.63525	2012.50781	1022.04309						 
23	0.220	1526.85889	691.14429	1670.29736	1415.76831	671.70837	1677.91833	1511.50293	807.89166	1630.55139	1393.19531	790.92743	1637.57922	1466.99243	852.05402	1438.21509	1457.96326	894.09998	1145.28809	1464.71533	711.35901	1366.92310	1469.20093	670.61243	1212.32056	1388.89136	910.82257	1244.02673	1625.85303	769.37128	1397.29028	1715.43604	779.47943	1215.14148	1722.92224	766.23883	1062.98132	1753.65698	697.19812	972.78729	1745.48083	584.29272	889.90704	1764.73132	636.73456	867.16754	1782.53271	570.42511	818.08435	1313.47034	774.10065	1396.04773	1213.16150	841.87317	1198.91943	1210.76843	848.13263	1073.75964	1181.85730	827.54242	954.59088	1204.50940	755.31201	833.48157	1163.38037	798.15216	836.78406	1167.26331	764.29651	757.87390	1566.52307	723.00153	936.49652	1351.59668	715.93530	942.67938	1506.46362	906.62299	948.78619	1360.85193	898.28729	949.39771	1605.62793	771.20325	599.65088	1583.31592	789.34613	466.22668	1583.31030	860.70813	289.35291	1524.29126	915.12830	80.47252	1470.09473	962.37292	55.60210	1532.97412	771.55603	36.59111	1281.59094	661.90314	626.84497	1303.97632	613.54242	475.45975	1298.67188	721.86737	335.21884	1341.85132	825.47833	156.12975	1396.05933	882.02966	136.40475	1332.31860	719.55365	62.58293	1438.28552	682.89648	1711.73425	-3101.97754	1973.20178	1023.52472	-3140.66284	2012.58325	1022.00732						 
